<svg xmlns="http://www.w3.org/2000/svg" viewBox="0 0 680 250" font-family="Segoe UI, Helvetica, Arial, sans-serif" role="img" aria-label="SR-IOV: una NIC fisica PF espone piu' Virtual Function VF, ognuna assegnata direttamente a un pod bypassando lo stack software">
<style>.bg{fill:#fff;stroke:#e5e7eb}.t{fill:#1f2430;font-weight:600;font-size:13px}.ts{fill:#555a66;font-size:11px}@media(prefers-color-scheme:dark){.bg{fill:#1b2030;stroke:#33384a}.t{fill:#e8eaf0}.ts{fill:#a7adbd}}</style>
<defs><marker id="r1" viewBox="0 0 10 10" refX="8" refY="5" markerWidth="6" markerHeight="6" orient="auto"><path d="M2 1L8 5L2 9" fill="none" stroke="#8a8f99" stroke-width="1.4" stroke-linecap="round"/></marker></defs>
<rect class="bg" x="1" y="1" width="678" height="248" rx="12"/>
<text class="t" x="40" y="34" font-size="14">SR-IOV: Virtual Function hardware direttamente nei pod</text>
<rect x="40" y="90" width="150" height="90" rx="10" fill="#FAEEDA" stroke="#854F0B" stroke-width="0.6"/><text class="t" x="115" y="128" text-anchor="middle" fill="#633806">NIC fisica (PF)</text><text class="ts" x="115" y="148" text-anchor="middle" fill="#854F0B">SR-IOV capable</text>
<rect x="270" y="60" width="120" height="40" rx="8" fill="#E6F1FB" stroke="#185FA5" stroke-width="0.5"/><text class="ts" x="330" y="85" text-anchor="middle" fill="#0C447C">VF 1</text>
<rect x="270" y="115" width="120" height="40" rx="8" fill="#E6F1FB" stroke="#185FA5" stroke-width="0.5"/><text class="ts" x="330" y="140" text-anchor="middle" fill="#0C447C">VF 2</text>
<rect x="270" y="170" width="120" height="40" rx="8" fill="#E6F1FB" stroke="#185FA5" stroke-width="0.5"/><text class="ts" x="330" y="195" text-anchor="middle" fill="#0C447C">VF 3</text>
<rect x="470" y="115" width="170" height="40" rx="8" fill="#F1EFE8" stroke="#5F5E5A" stroke-width="0.5"/><text class="ts" x="555" y="140" text-anchor="middle" fill="#2C2C2A">pod (line-rate)</text>
<line x1="190" y1="120" x2="268" y2="82" stroke="#8a8f99" stroke-width="1.2" marker-end="url(#r1)"/><line x1="190" y1="135" x2="268" y2="135" stroke="#8a8f99" stroke-width="1.2" marker-end="url(#r1)"/><line x1="190" y1="150" x2="268" y2="188" stroke="#8a8f99" stroke-width="1.2" marker-end="url(#r1)"/>
<line x1="390" y1="135" x2="468" y2="135" stroke="#8a8f99" stroke-width="1.4" marker-end="url(#r1)"/>
<text class="ts" x="340" y="234" text-anchor="middle">SriovNetworkNodePolicy crea le VF · SriovNetwork genera la NAD · serve HW compatibile</text>
</svg>
