<svg xmlns="http://www.w3.org/2000/svg" viewBox="0 0 680 270" font-family="Segoe UI, Helvetica, Arial, sans-serif" role="img" aria-label="Due livelli: la UDN isola il tenant dagli altri segmenti, e dentro la UDN le NetworkPolicy fanno micro-segmentazione fra i pod">
<style>.bg{fill:#fff;stroke:#e5e7eb}.t{fill:#1f2430;font-weight:600;font-size:13px}.ts{fill:#555a66;font-size:11px}@media(prefers-color-scheme:dark){.bg{fill:#1b2030;stroke:#33384a}.t{fill:#e8eaf0}.ts{fill:#a7adbd}}</style>
<defs><marker id="ok2" viewBox="0 0 10 10" refX="8" refY="5" markerWidth="7" markerHeight="7" orient="auto"><path d="M2 1L8 5L2 9" fill="none" stroke="#0F6E56" stroke-width="1.6" stroke-linecap="round"/></marker><marker id="no2" viewBox="0 0 10 10" refX="8" refY="5" markerWidth="7" markerHeight="7" orient="auto"><path d="M2 1L8 5L2 9" fill="none" stroke="#993C1D" stroke-width="1.6" stroke-linecap="round"/></marker></defs>
<rect class="bg" x="1" y="1" width="678" height="268" rx="12"/>
<text class="t" x="40" y="32" font-size="14">Due livelli: confine di tenant (UDN) + micro-seg (NetworkPolicy)</text>
<rect x="40" y="50" width="470" height="180" rx="12" fill="#E1F5EE" stroke="#0F6E56" stroke-width="0.9" stroke-dasharray="6 4"/><text class="ts" x="60" y="72" fill="#085041">UDN tenant — isolato di default dagli altri segmenti</text>
<rect x="80" y="100" width="120" height="50" rx="8" fill="#E6F1FB" stroke="#185FA5" stroke-width="0.5"/><text class="t" x="140" y="130" text-anchor="middle" fill="#0C447C">api</text>
<rect x="360" y="100" width="120" height="50" rx="8" fill="#E6F1FB" stroke="#185FA5" stroke-width="0.5"/><text class="t" x="420" y="125" text-anchor="middle" fill="#0C447C">db</text><text class="ts" x="420" y="141" text-anchor="middle" fill="#185FA5">:5432</text>
<rect x="80" y="170" width="120" height="44" rx="8" fill="#F1EFE8" stroke="#5F5E5A" stroke-width="0.5"/><text class="t" x="140" y="197" text-anchor="middle" fill="#2C2C2A">web</text>
<line x1="200" y1="125" x2="358" y2="125" stroke="#0F6E56" stroke-width="2" marker-end="url(#ok2)"/><text class="ts" x="279" y="117" text-anchor="middle" fill="#0F6E56">consentito</text>
<line x1="200" y1="188" x2="360" y2="145" stroke="#993C1D" stroke-width="2" stroke-dasharray="5 4" marker-end="url(#no2)"/>
<rect x="540" y="90" width="110" height="80" rx="10" fill="#F1EFE8" stroke="#5F5E5A" stroke-width="0.6"/><text class="ts" x="595" y="126" text-anchor="middle" fill="#2C2C2A">altri tenant</text><text class="ts" x="595" y="144" text-anchor="middle" fill="#5F5E5A">irraggiungibili</text>
<line x1="510" y1="140" x2="538" y2="140" stroke="#993C1D" stroke-width="2" stroke-dasharray="4 4" marker-end="url(#no2)"/>
<text class="ts" x="340" y="254" text-anchor="middle">UDN = confine fra tenant · NetworkPolicy = regole fini dentro il tenant</text>
</svg>
